# xmcd
#
# Track frame offsets:
#	150
#	15525
#	44115
#	72644
#	89418
#	107573
#	127316
#	161210
#	177800
#	201218
#	233251
#	267685
#
# Disc length: 3902 seconds
# Revision: 0
# Processed by: cddbd v1.5.2PL0 Copyright (c) Steve Scherf et al.
# Submitted via: dBpowerAMP V12.0
#
DISCID=b10f3c0c
DTITLE=Mission of Blues - Live at the Ming
DYEAR=2014
DGENRE=Blues
TTITLE0=Bad Whiskey
TTITLE1=Cherry Bomb
TTITLE2=Feels Like Rain
TTITLE3=Slip away
TTITLE4=So very hard to go
TTITLE5=Can I change my mind?
TTITLE6=Use my imagination
TTITLE7=I'd rather drink muddy water
TTITLE8=Southbound
TTITLE9=Take me to the river
TTITLE10=Liz Reed
TTITLE11=Time to say goodnight
EXTD=
EXTT0=
EXTT1=
EXTT2=
EXTT3=
EXTT4=
EXTT5=
EXTT6=
EXTT7=
EXTT8=
EXTT9=
EXTT10=
EXTT11=
PLAYORDER=
